<svg width="12960" height="4490" viewBox="0 0 12960 4490" fill="none" xmlns="http://www.w3.org/2000/svg">
<path d="M97.5 263C296 282.5 318.5 107.499 700.5 172.5C1082.5 237.5 567 380 567 380L233 375.928C233 375.928 -101 243.5 97.5 263Z" fill="#A1D683"/>
<path d="M-69.5 115C-152.5 515.5 1038.5 -57.4997 1276 194.5C1513.5 446.501 1418 445 1276 493.5C1134 542 -70.9999 493.5 -70.9999 493.5C-70.9999 493.5 13.5001 -285.5 -69.5 115Z" fill="#A1D683"/>
<path d="M54 381.04C48.5 381.04 44 385.53 44 391.06C44 396.06 47.66 400.21 52.44 400.96V393.96H49.9V391.06H52.44V388.85C52.44 386.34 53.93 384.96 56.22 384.96C57.31 384.96 58.45 385.15 58.45 385.15V387.62H57.19C55.95 387.62 55.56 388.39 55.56 389.18V391.06H58.34L57.89 393.96H55.56V400.96C57.9164 400.588 60.0622 399.385 61.6099 397.57C63.1576 395.755 64.0054 393.446 64 391.06C64 385.53 59.5 381.04 54 381.04Z" fill="#135359"/>
<path d="M109 382C109.53 382 110.039 382.211 110.414 382.586C110.789 382.961 111 383.47 111 384V398C111 398.53 110.789 399.039 110.414 399.414C110.039 399.789 109.53 400 109 400H95C94.4696 400 93.9609 399.789 93.5858 399.414C93.2107 399.039 93 398.53 93 398V384C93 383.47 93.2107 382.961 93.5858 382.586C93.9609 382.211 94.4696 382 95 382H109ZM108.5 397.5V392.2C108.5 391.335 108.157 390.506 107.545 389.895C106.934 389.283 106.105 388.94 105.24 388.94C104.39 388.94 103.4 389.46 102.92 390.24V389.13H100.13V397.5H102.92V392.57C102.92 391.8 103.54 391.17 104.31 391.17C104.681 391.17 105.037 391.317 105.3 391.58C105.563 391.843 105.71 392.199 105.71 392.57V397.5H108.5ZM96.88 387.56C97.3256 387.56 97.7529 387.383 98.0679 387.068C98.383 386.753 98.56 386.326 98.56 385.88C98.56 384.95 97.81 384.19 96.88 384.19C96.4318 384.19 96.0019 384.368 95.685 384.685C95.3681 385.002 95.19 385.432 95.19 385.88C95.19 386.81 95.95 387.56 96.88 387.56ZM98.27 397.5V389.13H95.5V397.5H98.27Z" fill="#135359"/>
<path d="M148 394L153.19 391L148 388V394ZM159.56 386.17C159.69 386.64 159.78 387.27 159.84 388.07C159.91 388.87 159.94 389.56 159.94 390.16L160 391C160 393.19 159.84 394.8 159.56 395.83C159.31 396.73 158.73 397.31 157.83 397.56C157.36 397.69 156.5 397.78 155.18 397.84C153.88 397.91 152.69 397.94 151.59 397.94L150 398C145.81 398 143.2 397.84 142.17 397.56C141.27 397.31 140.69 396.73 140.44 395.83C140.31 395.36 140.22 394.73 140.16 393.93C140.09 393.13 140.06 392.44 140.06 391.84L140 391C140 388.81 140.16 387.2 140.44 386.17C140.69 385.27 141.27 384.69 142.17 384.44C142.64 384.31 143.5 384.22 144.82 384.16C146.12 384.09 147.31 384.06 148.41 384.06L150 384C154.19 384 156.8 384.16 157.83 384.44C158.73 384.69 159.31 385.27 159.56 386.17Z" fill="#135359"/>
<path d="M193.8 381H202.2C205.4 381 208 383.6 208 386.8V395.2C208 396.738 207.389 398.214 206.301 399.301C205.214 400.389 203.738 401 202.2 401H193.8C190.6 401 188 398.4 188 395.2V386.8C188 385.262 188.611 383.786 189.699 382.699C190.786 381.611 192.262 381 193.8 381ZM193.6 383C192.645 383 191.73 383.379 191.054 384.054C190.379 384.73 190 385.645 190 386.6V395.4C190 397.39 191.61 399 193.6 399H202.4C203.355 399 204.27 398.621 204.946 397.946C205.621 397.27 206 396.355 206 395.4V386.6C206 384.61 204.39 383 202.4 383H193.6ZM203.25 384.5C203.582 384.5 203.899 384.632 204.134 384.866C204.368 385.101 204.5 385.418 204.5 385.75C204.5 386.082 204.368 386.399 204.134 386.634C203.899 386.868 203.582 387 203.25 387C202.918 387 202.601 386.868 202.366 386.634C202.132 386.399 202 386.082 202 385.75C202 385.418 202.132 385.101 202.366 384.866C202.601 384.632 202.918 384.5 203.25 384.5ZM198 386C199.326 386 200.598 386.527 201.536 387.464C202.473 388.402 203 389.674 203 391C203 392.326 202.473 393.598 201.536 394.536C200.598 395.473 199.326 396 198 396C196.674 396 195.402 395.473 194.464 394.536C193.527 393.598 193 392.326 193 391C193 389.674 193.527 388.402 194.464 387.464C195.402 386.527 196.674 386 198 386ZM198 388C197.204 388 196.441 388.316 195.879 388.879C195.316 389.441 195 390.204 195 391C195 391.796 195.316 392.559 195.879 393.121C196.441 393.684 197.204 394 198 394C198.796 394 199.559 393.684 200.121 393.121C200.684 392.559 201 391.796 201 391C201 390.204 200.684 389.441 200.121 388.879C199.559 388.316 198.796 388 198 388Z" fill="#135359"/>
</svg>
